<svg xmlns="http://www.w3.org/2000/svg" viewBox="0 0 512 512" width="512" height="512">
  <defs>
    <linearGradient id="bg" x1="0" y1="0" x2="1" y2="1">
      <stop offset="0" stop-color="#00C2A8"/>
      <stop offset="1" stop-color="#4F46E5"/>
    </linearGradient>
    <linearGradient id="vid" x1="0" y1="0" x2="1" y2="1">
      <stop offset="0" stop-color="#00C2A8"/>
      <stop offset="1" stop-color="#4F46E5"/>
    </linearGradient>
  </defs>
  <rect width="512" height="512" rx="118" fill="url(#bg)"/>
  <path d="M256 110c-90 0-163 64-163 144 0 50 28 94 73 120l-20 62 73-38c12 3 25 4 33 4 90 0 163-64 163-144S346 110 256 110z" fill="#ffffff"/>
  <path d="M150 318l-14 46 47-24c11 6 23 10 36 13 0 0 0 0 0 0z" fill="#ffffff" opacity="0.95"/>
  <g transform="translate(196 206)">
    <rect x="0" y="0" width="92" height="60" rx="16" fill="url(#vid)"/>
    <path d="M92 18l34 12-34 12z" fill="url(#vid)"/>
  </g>
</svg>
